<?xml version="1.0" encoding="utf-8"?>
<!-- Generator: Adobe Illustrator 16.0.0, SVG Export Plug-In . SVG Version: 6.00 Build 0)  -->
<!DOCTYPE svg PUBLIC "-//W3C//DTD SVG 1.1//EN" "http://www.w3.org/Graphics/SVG/1.1/DTD/svg11.dtd">
<svg version="1.1" id="Layer_1" xmlns="http://www.w3.org/2000/svg" xmlns:xlink="http://www.w3.org/1999/xlink" x="0px" y="0px"
	 width="512px" height="512px" viewBox="0 0 512 512" enable-background="new 0 0 512 512" xml:space="preserve">
<path fill-rule="evenodd" clip-rule="evenodd" fill="#BF1D2D" d="M51.8,357.427c0-91.208,0-182.416,0-273.624
	c0.215-0.622,0.521-1.229,0.63-1.869c1.505-8.881,5.8-16.093,12.673-21.91c5.454-4.616,11.955-6.647,18.699-8.224
	c44.004,0,88.008,0,132.012,0c0.348,0.181,0.676,0.453,1.045,0.532c17.5,3.709,27.868,14.408,30.304,32.087
	c2.746,19.928,5.084,39.912,7.566,59.876c3.567,28.69,7.109,57.384,10.652,86.078c3.314,26.843,6.603,53.689,9.926,80.53
	c2.702,21.816,5.47,43.625,8.142,65.445c0.821,6.701-4.828,13.08-11.387,13.08c-13.201,0-26.402,0-39.603,0
	c-47.471,0-94.942-0.017-142.413,0.011c-12.622,0.007-23.102-4.362-30.974-14.504C55.037,369.735,53.296,363.648,51.8,357.427z
	 M177.208,233.542c2.515,12.636,4.928,25.036,7.466,37.409c1.489,7.258,7.702,11.64,14.235,10.247
	c6.763-1.44,10.757-7.7,9.328-14.854c-7.822-39.152-15.666-78.301-23.54-117.444c-1.604-7.972-5.827-11.425-13.867-11.481
	c-7.063-0.05-14.128-0.047-21.192-0.001c-8.059,0.053-12.312,3.504-13.911,11.431c-5.607,27.787-11.159,55.586-16.732,83.381
	c-2.303,11.483-4.661,22.956-6.886,34.454c-1.333,6.886,2.722,13.036,9.349,14.5c6.13,1.354,12.123-2.473,13.969-8.999
	c0.505-1.787,0.797-3.636,1.163-5.462c2.214-11.045,4.421-22.092,6.639-33.181C154.656,233.542,165.693,233.542,177.208,233.542z"/>
<path fill-rule="evenodd" clip-rule="evenodd" fill="#FFFFFF" d="M429.433,461.436c-61.071,0-122.144,0-183.216,0
	c0.471-0.634,0.899-1.306,1.417-1.898c16.485-18.865,32.928-37.768,49.495-56.562c7.954-9.025,11.419-19.416,9.977-31.31
	c-4.042-33.313-8.177-66.614-12.328-99.914c-5.469-43.87-10.994-87.733-16.48-131.601c-0.635-5.072-1.183-10.156-1.773-15.255
	c0.918-0.151,1.303-0.269,1.688-0.269c49.045-0.008,98.091-0.098,147.136,0.063c11.4,0.037,20.774,4.894,28.006,13.868
	c4.483,5.564,6.521,12.083,8.083,18.852c0,90.674,0,181.35,0,272.023c-0.215,0.622-0.521,1.229-0.63,1.869
	c-1.505,8.882-5.8,16.093-12.674,21.91C442.678,457.826,436.178,459.86,429.433,461.436z M393.304,310.334
	c0.548-0.893,0.771-1.364,1.09-1.759c11.865-14.766,21.237-30.9,27.179-48.97c0.315-0.962,1.968-2.002,3.08-2.104
	c7.908-0.719,12.992-5.584,12.747-12.497c-0.247-6.952-5.604-11.556-13.579-11.581c-10.396-0.033-20.792-0.002-31.188-0.016
	c-1.274-0.002-2.55-0.113-4.006-0.183c0-3.974,0.059-7.562-0.012-11.146c-0.145-7.408-5.271-12.716-12.123-12.635
	c-6.696,0.08-11.688,5.309-11.845,12.509c-0.08,3.695-0.014,7.393-0.014,11.463c-1.823,0-3.253-0.001-4.683,0
	c-10.529,0.008-21.061-0.121-31.586,0.077c-6.637,0.124-11.635,5.399-11.711,11.787c-0.075,6.385,4.837,11.59,11.435,12.097
	c1.184,0.091,2.372,0.115,3.729,0.18c6.227,19.078,15.224,36.633,28.146,52.325c-1.444,1.27-2.702,2.442-4.028,3.532
	c-7.413,6.087-14.873,12.119-22.258,18.241c-5.771,4.784-6.675,11.943-2.307,17.337c4.245,5.245,11.294,5.965,17.141,1.445
	c6.323-4.888,12.468-10.008,18.648-15.078c3.162-2.594,6.233-5.301,9.469-8.061c1.52,1.299,2.693,2.364,3.932,3.35
	c8.338,6.64,16.602,13.375,25.065,19.849c6.009,4.596,13.251,3.64,17.356-1.905c4.136-5.586,2.95-12.477-2.987-17.252
	c-1.453-1.168-2.967-2.263-4.431-3.418C408.15,322.073,400.746,316.215,393.304,310.334z"/>
<path fill-rule="evenodd" clip-rule="evenodd" fill="#FFFFFF" d="M429.433,461.436c6.745-1.575,13.245-3.609,18.699-8.224
	c6.874-5.817,11.169-13.028,12.674-21.91c0.108-0.64,0.415-1.247,0.63-1.869c0,10.668,0,21.336,0,32.003
	C450.769,461.436,440.101,461.436,429.433,461.436z"/>
<path fill-rule="evenodd" clip-rule="evenodd" fill="#FFFFFF" d="M192.013,413.637c20.897,0,41.484,0,62.519,0
	c-0.674,0.919-1.12,1.658-1.688,2.286c-11.896,13.118-23.847,26.187-35.666,39.373c-1.729,1.931-2.987,2.333-5.287,0.93
	c-9.116-5.561-15.136-13.386-17.28-23.835C193.36,426.302,192.875,420.054,192.013,413.637z"/>
<path fill-rule="evenodd" clip-rule="evenodd" fill="#BF1D2D" d="M148.091,209.24c3.176-15.926,6.311-31.649,9.488-47.585
	c1.647,0,3.195,0,5.239,0c3.138,15.677,6.307,31.512,9.524,47.585C164.165,209.24,156.352,209.24,148.091,209.24z"/>
<path fill-rule="evenodd" clip-rule="evenodd" fill="#FFFFFF" d="M396.839,257.617c-4.649,12.777-11.66,23.747-20.171,34.404
	c-8.492-10.46-14.792-21.769-19.54-34.404C370.562,257.617,383.501,257.617,396.839,257.617z"/>
</svg>
